<?xml version="1.0" encoding="utf-8"?>
<!-- Generator: Adobe Illustrator 19.2.1, SVG Export Plug-In . SVG Version: 6.00 Build 0)  -->
<svg version="1.1" id="Layer_1" xmlns="http://www.w3.org/2000/svg" xmlns:xlink="http://www.w3.org/1999/xlink" x="0px" y="0px"
	 viewBox="0 0 84 84" style="enable-background:new 0 0 84 84;" xml:space="preserve">
<style type="text/css">
	.st0{fill:#212121;}
	.st1{fill:#A4A4A4;}
</style>
<rect y="0" class="st0" width="84" height="84"/>
<path class="st1" d="M42,1C19.3,1,1,19.3,1,42s18.3,41,41,41s41-18.3,41-41S64.7,1,42,1z M42,75.4c-18.4,0-33.3-14.9-33.3-33.3
	S23.7,8.7,42,8.7s33.3,15,33.3,33.3S60.4,75.4,42,75.4z"/>
<path class="st1" d="M54.8,21.6L42,34.3L29.2,21.6l-7.7,7.7l12.8,12.8L21.6,54.8l7.7,7.7l12.8-12.8l12.8,12.8l7.7-7.7L49.7,42
	l12.8-12.8L54.8,21.6z"/>
</svg>
