<svg xmlns="http://www.w3.org/2000/svg" viewBox="0 0 100 100"><title>no-image</title><path d="M100,71.9A28,28,0,0,0,75,44V17.5L57.5,0H0V100H75V99.8A28,28,0,0,0,100,71.9ZM56.2,7.5L67.4,18.7H56.2V7.5ZM6.3,93.8V6.2H50V25H68.8V43.9a28.16,28.16,0,0,0-7.7,2,7.28,7.28,0,0,0-4.8-2.2H50l-6.3-6.3H31.3L25,43.8H18.7s-6.3,0-6.3,6.3V68.9c0,6.3,6.3,6.3,6.3,6.3H43.9A28.16,28.16,0,0,0,54.2,94H6.3V93.8Zm31.2-25a9.4,9.4,0,0,1,0-18.8,9.24,9.24,0,0,1,9.3,9.1,33.48,33.48,0,0,0-2.4,6.5A9.06,9.06,0,0,1,37.5,68.8Zm34.4,25A21.9,21.9,0,1,1,93.8,71.9,22,22,0,0,1,71.9,93.8Z" transform="translate(0 0)" fill="#fff"/><polygon points="59.4 78.1 65.6 84.4 71.9 78.1 78.1 84.4 84.4 78.1 78.1 71.9 84.4 65.6 78.1 59.4 71.9 65.6 65.6 59.4 59.4 65.6 65.6 71.9 59.4 78.1" fill="#fff"/></svg>