<?xml version="1.0" encoding="utf-8"?>
<!-- Generator: Adobe Illustrator 19.2.1, SVG Export Plug-In . SVG Version: 6.00 Build 0)  -->
<svg version="1.1" id="Layer_1" xmlns="http://www.w3.org/2000/svg" xmlns:xlink="http://www.w3.org/1999/xlink" x="0px" y="0px"
	 viewBox="0 0 84 84" style="enable-background:new 0 0 84 84;" xml:space="preserve">
<style type="text/css">
	.st0{fill:#A4A4A4;}
</style>
<g>
	<path d="M42,1C19.4,1,1,19.4,1,42s18.4,41,41,41s41-18.4,41-41S64.6,1,42,1z M42,75.3C23.6,75.3,8.7,60.4,8.7,42S23.6,8.7,42,8.7
		S75.3,23.6,75.3,42S60.4,75.3,42,75.3z M26.7,26.7h10.2v30.7H26.7V26.7z M47.2,26.7h10.2v30.7H47.2V26.7z"/>
	<path class="st0" d="M42,1C19.4,1,1,19.4,1,42s18.4,41,41,41s41-18.4,41-41S64.6,1,42,1z M42,75.3C23.6,75.3,8.7,60.4,8.7,42
		S23.6,8.7,42,8.7S75.3,23.6,75.3,42S60.4,75.3,42,75.3z M26.7,26.7h10.2v30.7H26.7V26.7z M47.2,26.7h10.2v30.7H47.2V26.7z"/>
</g>
</svg>
